<?xml version="1.0" encoding="UTF-8"?>
<svg version="1.1" xmlns="http://www.w3.org/2000/svg" width="512" height="512">
<path d="M0 0 C1.27481066 -0.00367669 2.54962133 -0.00735338 3.86306262 -0.01114148 C7.39066129 -0.02111499 10.91824295 -0.02487076 14.44585371 -0.02753079 C18.25527124 -0.03144783 22.06467548 -0.04102528 25.87408447 -0.04974365 C35.06970546 -0.06947079 44.26532748 -0.07957045 53.46096432 -0.08847144 C57.79893574 -0.09286133 62.13690594 -0.0982264 66.4748764 -0.10346031 C80.90906648 -0.12047042 95.34325582 -0.13496178 109.77745438 -0.14220905 C113.51999157 -0.14411873 117.26252875 -0.14603909 121.00506592 -0.147995 C122.40023186 -0.14872061 122.40023186 -0.14872061 123.82358298 -0.14946087 C138.87088051 -0.15775071 153.91809828 -0.18307089 168.96536103 -0.21557567 C184.43893577 -0.24872682 199.91247009 -0.26666515 215.3860805 -0.26985329 C224.06376517 -0.27201117 232.74133358 -0.2806532 241.41898346 -0.30631447 C248.813627 -0.328132 256.20812605 -0.33601809 263.60279813 -0.32634769 C267.36825909 -0.32183444 271.13342263 -0.32351286 274.89884186 -0.34310913 C307.52181189 -0.50328052 334.33525728 5.0290383 360.36541748 26.14717102 C361.21877686 26.83424133 362.07213623 27.52131165 362.95135498 28.22920227 C383.14987598 45.40113101 397.90611925 72.69930777 400.36541748 99.14717102 C400.51505741 103.35867572 400.51324221 107.56791394 400.5125885 111.78175354 C400.51626519 113.0565642 400.51994188 114.33137487 400.52372998 115.64481616 C400.53370349 119.17241483 400.53745926 122.69999649 400.54011929 126.22760725 C400.54403633 130.03702478 400.55361378 133.84642902 400.56233215 137.65583801 C400.58205929 146.851459 400.59215895 156.04708102 400.60105994 165.24271786 C400.60544983 169.58068928 400.6108149 173.91865948 400.61604881 178.25662994 C400.63305892 192.69082002 400.64755028 207.12500936 400.65479755 221.55920792 C400.65670723 225.30174511 400.6586276 229.04428229 400.6605835 232.78681946 C400.66106724 233.71693009 400.66155098 234.64704072 400.66204938 235.60533652 C400.67033921 250.65263405 400.69565939 265.69985182 400.72816417 280.74711457 C400.76131532 296.22068931 400.77925365 311.69422363 400.78244179 327.16783404 C400.78459967 335.84551871 400.7932417 344.52308712 400.81890297 353.200737 C400.8407205 360.59538054 400.84860659 367.98987959 400.83893619 375.38455167 C400.83442294 379.15001263 400.83610137 382.91517617 400.85569763 386.6805954 C401.01586902 419.30356543 395.4835502 446.11701082 374.36541748 472.14717102 C373.67834717 473.0005304 372.99127686 473.85388977 372.28338623 474.73310852 C355.1114575 494.93162952 327.81328074 509.68787279 301.36541748 512.14717102 C297.15391278 512.29681095 292.94467456 512.29499575 288.73083496 512.29434204 C287.4560243 512.29801873 286.18121363 512.30169542 284.86777234 512.30548352 C281.34017367 512.31545703 277.81259201 512.3192128 274.28498125 512.32187283 C270.47556372 512.32578987 266.66615948 512.33536732 262.85675049 512.34408569 C253.6611295 512.36381283 244.46550748 512.37391249 235.26987064 512.38281348 C230.93189922 512.38720337 226.59392902 512.39256844 222.25595856 512.39780235 C207.82176848 512.41481246 193.38757914 512.42930382 178.95338058 512.43655109 C175.21084339 512.43846077 171.46830621 512.44038114 167.72576904 512.44233704 C166.79565841 512.44282078 165.86554778 512.44330452 164.90725198 512.44380292 C149.85995445 512.45209275 134.81273668 512.47741293 119.76547393 512.50991771 C104.29189919 512.54306886 88.81836487 512.5610072 73.34475446 512.56419533 C64.6670698 512.56635321 55.98950138 512.57499524 47.3118515 512.60065651 C39.91720796 512.62247404 32.52270891 512.63036013 25.12803683 512.62068973 C21.36257587 512.61617648 17.59741233 512.61785491 13.8319931 512.63745117 C-18.79097693 512.79762256 -45.60442232 507.26530374 -71.63458252 486.14717102 C-72.91462158 485.11656555 -72.91462158 485.11656555 -74.22052002 484.06513977 C-94.41904102 466.89321104 -109.17528429 439.59503428 -111.63458252 413.14717102 C-111.78422245 408.93566632 -111.78240725 404.7264281 -111.78175354 400.5125885 C-111.78543023 399.23777784 -111.78910692 397.96296717 -111.79289502 396.64952588 C-111.80286853 393.12192721 -111.8066243 389.59434555 -111.80928433 386.06673479 C-111.81320137 382.25731726 -111.82277882 378.44791302 -111.83149719 374.63850403 C-111.85122433 365.44288304 -111.86132399 356.24726102 -111.87022498 347.05162418 C-111.87461487 342.71365276 -111.87997994 338.37568256 -111.88521385 334.0377121 C-111.90222396 319.60352202 -111.91671532 305.16933268 -111.92396259 290.73513412 C-111.92587227 286.99259693 -111.92779263 283.25005975 -111.92974854 279.50752258 C-111.93023228 278.57741195 -111.93071602 277.64730132 -111.93121441 276.68900552 C-111.93950425 261.64170799 -111.96482443 246.59449022 -111.99732921 231.54722747 C-112.03048036 216.07365273 -112.04841869 200.60011841 -112.05160683 185.126508 C-112.05376471 176.44882334 -112.06240674 167.77125492 -112.08806801 159.09360504 C-112.10988554 151.6989615 -112.11777163 144.30446245 -112.10810123 136.90979037 C-112.10358798 133.14432941 -112.1052664 129.37916587 -112.12486267 125.61374664 C-112.28503406 92.99077661 -106.75271524 66.17733122 -85.63458252 40.14717102 C-84.94751221 39.29381165 -84.26044189 38.44045227 -83.55255127 37.56123352 C-62.93983376 13.31547675 -31.43924086 -0.0048773 0 0 Z " fill="#7ACCAC" transform="translate(111.63458251953125,-0.1471710205078125)"/>
<path d="M0 0 C14.14630268 8.28734353 22.1449847 22.10510317 27.3671875 37.2421875 C27.59744629 37.89501709 27.82770508 38.54784668 28.06494141 39.22045898 C32.61512243 53.36340977 33.57793387 68.05696133 33.4296875 82.8046875 C33.4260318 83.60757202 33.4223761 84.41045654 33.41860962 85.2376709 C33.35545263 97.10765084 32.71935702 108.65510194 30.46484375 120.33642578 C30.06762787 122.42417354 29.72421509 124.51332293 29.3984375 126.61328125 C23.49644134 163.89848098 11.96729222 201.19660874 -4.16601562 235.31665039 C-6.93508119 240.69153315 -6.93508119 240.69153315 -7.9453125 246.4921875 C-6.40153404 248.55980296 -4.96889044 250.15916239 -3.1328125 251.9296875 C28.10495373 284.0348909 38.80091098 326.50091778 38.33203125 370.1796875 C37.961446 392.52342688 32.16810695 413.46284682 25.0546875 434.4921875 C25.65313477 434.66073242 26.25158203 434.82927734 26.86816406 435.00292969 C33.08411436 436.80055393 37.87602262 439.66960564 43.0546875 443.4921875 C44.6015625 444.575 44.6015625 444.575 46.1796875 445.6796875 C52.01036895 450.69829632 56.88577714 459.21995865 59.0546875 466.4921875 C59.27770519 470.50650601 59.23270132 474.47698699 59.0546875 478.4921875 C42.60906095 485.54031316 25.60427507 484.93619058 8.0457263 484.89902055 C4.24188839 484.89424939 0.43809914 484.90683337 -3.36572266 484.91703796 C-10.79966159 484.9341555 -18.23351573 484.93508058 -25.66746923 484.92982506 C-31.71625129 484.9257684 -37.76500848 484.92724459 -43.81378937 484.93257332 C-45.10970739 484.93369595 -45.10970739 484.93369595 -46.43180557 484.93484126 C-48.18745167 484.93637289 -49.94309776 484.93791124 -51.69874385 484.93945623 C-68.13027368 484.95315615 -84.56175578 484.94776159 -100.99328449 484.93627102 C-115.98835055 484.9263445 -130.98329311 484.93927373 -145.97834012 484.96320521 C-161.41601895 484.98765536 -176.85364041 484.99718939 -192.29133821 484.99055248 C-200.9420622 484.98707296 -209.59269134 484.98920791 -218.24340057 485.00680351 C-225.60858815 485.02159988 -232.97361408 485.02206484 -240.33879873 485.0047326 C-244.08810132 484.99628028 -247.8371161 484.99392938 -251.58640289 485.00938416 C-286.58815596 485.14335838 -286.58815596 485.14335838 -301.9453125 478.4921875 C-302.60238366 464.96747282 -300.84350941 454.26889265 -291.9453125 443.4921875 C-286.70560029 438.02509155 -280.90641751 433.55330767 -273.9453125 430.4921875 C-273.2853125 430.4921875 -272.6253125 430.4921875 -271.9453125 430.4921875 C-272.33203125 429.56019531 -272.71875 428.62820313 -273.1171875 427.66796875 C-282.8790443 403.90857009 -286.91108211 380.05693541 -276.9453125 355.4921875 C-274.15571891 349.3704954 -271.03231837 343.41393424 -267.87280273 337.47680664 C-265.66783225 333.23655718 -264.14794345 329.22554656 -263.0078125 324.5546875 C-262.67213044 323.23788322 -262.33482762 321.92149129 -261.99609375 320.60546875 C-261.73820068 319.59154053 -261.73820068 319.59154053 -261.47509766 318.55712891 C-251.77739334 280.75842702 -232.64490621 249.94888948 -199.8828125 227.9296875 C-199.22724365 227.4877002 -198.5716748 227.04571289 -197.89624023 226.59033203 C-193.19724386 223.4921875 -193.19724386 223.4921875 -190.9453125 223.4921875 C-191.24179688 222.409375 -191.53828125 221.3265625 -191.84375 220.2109375 C-193.18081871 214.86266267 -193.86789301 209.45385743 -194.5703125 203.9921875 C-194.704375 202.97898438 -194.8384375 201.96578125 -194.9765625 200.921875 C-195.30358845 198.44582141 -195.62640692 195.96929775 -195.9453125 193.4921875 C-197.151875 193.275625 -197.151875 193.275625 -198.3828125 193.0546875 C-200.9453125 192.4921875 -200.9453125 192.4921875 -201.9453125 191.4921875 C-203.38835783 191.57906106 -204.82745635 191.73290454 -206.26171875 191.9140625 C-212.14447821 192.56247332 -217.96791057 192.71202866 -223.8828125 192.7421875 C-225.39391602 192.773125 -225.39391602 192.773125 -226.93554688 192.8046875 C-238.95952057 192.86654717 -249.48242383 189.87492123 -258.7265625 181.96875 C-266.68631162 173.64350219 -269.28388673 161.86581068 -269.328125 150.70947266 C-268.91672841 132.79229409 -259.07638444 118.00165985 -246.9453125 105.4921875 C-246.41808594 104.89148438 -245.89085937 104.29078125 -245.34765625 103.671875 C-231.04752655 87.94538965 -207.64200955 78.09167951 -186.66015625 77.078125 C-175.50198171 76.81211559 -164.65572853 77.10226046 -153.9453125 80.4921875 C-153.05199219 80.770625 -152.15867188 81.0490625 -151.23828125 81.3359375 C-144.72292006 83.65784809 -139.42065049 87.32596174 -133.9453125 91.4921875 C-132.9346875 92.2140625 -131.9240625 92.9359375 -130.8828125 93.6796875 C-108.83410397 112.93348932 -101.37405567 148.35050508 -99.28125 176.0625 C-98.65987242 185.53060922 -98.27317733 195.00999158 -97.9453125 204.4921875 C-93.6553125 205.1521875 -89.3653125 205.8121875 -84.9453125 206.4921875 C-84.74421875 203.70007813 -84.74421875 203.70007813 -84.5390625 200.8515625 C-83.90820081 192.6459178 -82.98907814 184.47994754 -82.05078125 176.3046875 C-80.39046235 161.34504654 -79.80245107 146.53600069 -79.96184349 131.50149345 C-79.98915848 128.77574262 -80.00660001 126.05008075 -80.02131653 123.32423401 C-80.06338783 115.58668581 -80.11097815 107.84930959 -80.19213867 100.11206055 C-80.91199092 29.19933166 -80.91199092 29.19933166 -59.1328125 6.0546875 C-54.53544152 1.69523222 -49.83992833 -1.22602573 -43.9453125 -3.5078125 C-43.07519531 -3.87132813 -42.20507812 -4.23484375 -41.30859375 -4.609375 C-27.93995479 -8.18055614 -12.16020636 -6.22525153 0 0 Z " fill="#FEFEFE" transform="translate(376.9453125,27.5078125)"/>
<path d="M0 0 C5.89383226 2.3839232 9.77961811 6.30173321 13.02734375 11.6796875 C19.7579129 27.73574403 17.12800364 49.48459904 13 66 C12.64542725 67.45140381 12.64542725 67.45140381 12.28369141 68.93212891 C8.22857152 85.30943629 3.84728604 101.96724723 -4 117 C-6.93990712 116.35936721 -9.43207448 115.40919186 -12.125 114.07421875 C-12.90891113 113.69136719 -13.69282227 113.30851562 -14.50048828 112.9140625 C-15.32532715 112.50929688 -16.15016602 112.10453125 -17 111.6875 C-23.55586841 108.51405425 -29.9595265 105.74618044 -36.9453125 103.65625 C-39 103 -39 103 -40 102 C-40.48887113 95.39562781 -38.98861809 89.19873874 -37.6875 82.75 C-35.8248579 73.18821974 -34.40693278 63.69225345 -33.4375 54 C-31.95980497 39.77234462 -30.44907917 26.11576873 -24.125 13.125 C-23.80958252 12.47635986 -23.49416504 11.82771973 -23.16918945 11.15942383 C-17.949526 1.30238578 -10.7494634 -1.36019009 0 0 Z " fill="#FED6D6" transform="translate(346,136)"/>
<path d="M0 0 C0.59423828 2.83569336 0.59423828 2.83569336 1.0703125 6.58984375 C1.15626678 7.2495668 1.24222107 7.90928986 1.33078003 8.58900452 C1.60410115 10.70417247 1.86450983 12.82071756 2.125 14.9375 C2.30778355 16.36143236 2.49136723 17.78526226 2.67578125 19.20898438 C4 29.53976733 4 29.53976733 4 32 C3.39115967 32.13051758 2.78231934 32.26103516 2.1550293 32.39550781 C-12.73810421 35.46053887 -12.73810421 35.46053887 -27.07421875 40.3984375 C-29 41 -29 41 -32 40 C-32.83644299 35.87562418 -33.66862838 31.75040082 -34.5 27.625 C-34.73847656 26.449375 -34.97695312 25.27375 -35.22265625 24.0625 C-35.44824219 22.94101563 -35.67382812 21.81953125 -35.90625 20.6640625 C-36.22045898 19.10872803 -36.22045898 19.10872803 -36.54101562 17.52197266 C-37 15 -37 15 -37 13 C-27.84623058 8.41261785 -18.73298076 3.92812208 -8.9375 0.875 C-7.93009766 0.55752808 -7.93009766 0.55752808 -6.90234375 0.23364258 C-2.26993665 -1.13496832 -2.26993665 -1.13496832 0 0 Z " fill="#FDD6D6" transform="translate(231,202)"/>
<path d="M0 0 C2.76864826 1.13526163 4.80613339 2.26707089 6.9296875 4.390625 C7.4921875 6.640625 7.4921875 6.640625 6.9296875 9.390625 C5.81561607 10.26596684 4.66361476 11.09367039 3.4921875 11.890625 C0.75343616 14.01705388 0.00312046 15.11282673 -0.8984375 18.5234375 C-1.8363897 25.03436096 -1.8363897 25.03436096 0.75390625 30.7265625 C4.09298384 33.2803274 6.84734572 33.54775043 10.9296875 33.578125 C11.7959375 33.59230469 12.6621875 33.60648437 13.5546875 33.62109375 C16.19690287 33.55318438 16.19690287 33.55318438 18.9296875 31.390625 C22.25209074 31.7147619 23.53745053 31.99838803 25.9296875 34.390625 C25.76690556 37.56487276 25.4012986 38.95045464 23.0546875 41.140625 C16.86593004 44.78107056 8.86938369 44.01840479 1.9296875 43.390625 C-1.23320445 42.16035643 -3.4678127 40.51642929 -6.0703125 38.390625 C-7.95640937 37.03060127 -7.95640937 37.03060127 -10.0703125 36.390625 C-11.42515105 37.01242459 -12.756173 37.68687817 -14.0703125 38.390625 C-21.69969994 39.24830777 -27.92200292 39.20234554 -34.0703125 34.390625 C-36.38411076 32.07682674 -36.99599122 31.01492379 -37.3828125 27.765625 C-37.0703125 25.390625 -37.0703125 25.390625 -35.0703125 23.390625 C-32.4453125 23.265625 -32.4453125 23.265625 -30.0703125 23.390625 C-29.668125 24.3496875 -29.668125 24.3496875 -29.2578125 25.328125 C-28.18363498 27.72194186 -28.18363498 27.72194186 -25.0703125 28.390625 C-22.9198908 28.62337563 -22.9198908 28.62337563 -20.6328125 28.640625 C-19.87097656 28.66640625 -19.10914063 28.6921875 -18.32421875 28.71875 C-15.38451548 28.29078627 -14.13030954 27.53211643 -12.0703125 25.390625 C-10.55136979 19.90819115 -10.193817 14.94569765 -13.0078125 9.953125 C-13.6884375 9.1075 -14.3690625 8.261875 -15.0703125 7.390625 C-15.5703125 4.703125 -15.5703125 4.703125 -15.0703125 2.390625 C-11.50741102 -2.10172904 -5.05606239 -1.4881995 0 0 Z " fill="#606060" transform="translate(243.0703125,384.609375)"/>
<path d="M0 0 C13.45784087 0.3907903 26.93905915 8.71783714 35.96875 18.265625 C43.60347398 27.57463055 47.9267621 37.55752497 47.9375 49.5625 C47.94974609 50.29082031 47.96199219 51.01914062 47.97460938 51.76953125 C47.97985188 53.66032978 47.87233385 55.55065581 47.75 57.4375 C45.75 59.4375 45.75 59.4375 42.25 59.75 C41.095 59.646875 39.94 59.54375 38.75 59.4375 C36.37326936 55.87240404 36.49577425 54.10674397 36.375 49.875 C35.77246305 39.95867148 32.75108432 31.64846693 25.75 24.4375 C17.68453201 17.7185667 9.30552018 13.49534333 -1.0859375 12.02734375 C-3.64233604 11.33056364 -4.68787021 10.56443893 -6.25 8.4375 C-5.93749346 3.33322648 -5.43745166 0.73196465 0 0 Z " fill="#E7F4F0" transform="translate(125.25,452.5625)"/>
<path d="M0 0 C2.32318096 1.84071449 2.92818346 2.52122307 3.375 5.5 C2.92586606 8.49422628 2.33806582 9.14924723 0 11 C-2.12890625 11.51953125 -2.12890625 11.51953125 -4.5625 11.8125 C-10.60668046 12.8786018 -15.01931866 15.50847508 -20 19 C-20.639375 19.44214844 -21.27875 19.88429688 -21.9375 20.33984375 C-32.2853688 28.30862664 -37.10248017 41.21119971 -38.75 53.8125 C-38.8325 54.864375 -38.915 55.91625 -39 57 C-42.63 57 -46.26 57 -50 57 C-50.769078 42.38751796 -45.7241281 29.40371359 -36.16015625 18.31445312 C-27.57091001 8.78538632 -14.03317609 -3.18544488 0 0 Z " fill="#E7F4F0" transform="translate(383,455)"/>
<path d="M0 0 C0.66 0.66 1.32 1.32 2 2 C1.625 5.625 1.625 5.625 1 9 C0.27039063 9.12375 -0.45921875 9.2475 -1.2109375 9.375 C-11.55142793 11.41756601 -20.50263021 15.56206749 -30 20 C-33.26456058 21.5140829 -36.53659767 23.0106482 -39.8125 24.5 C-40.55910889 24.85022217 -41.30571777 25.20044434 -42.07495117 25.5612793 C-48.89112473 28.66223631 -48.89112473 28.66223631 -53 28 C-55.3125 26 -55.3125 26 -57 24 C-55.43423706 20.66716174 -54.417709 19.213346 -51.09375 17.515625 C-49.9078125 17.09796875 -48.721875 16.6803125 -47.5 16.25 C-41.26636319 13.96345946 -35.33517364 11.29839714 -29.375 8.375 C-9.44084146 -1.25877886 -9.44084146 -1.25877886 0 0 Z " fill="#E8E8EA" transform="translate(230,193)"/>
<path d="M0 0 C3.91502442 1.04866725 4.524432 1.55839414 6.5 4.9375 C7.77520152 11.69262156 6.18731857 17.26584131 2.5 22.9375 C1.5 23.9375 1.5 23.9375 -1.8125 24.3125 C-5.5 23.9375 -5.5 23.9375 -7.9375 22.0625 C-10.15477283 17.62795434 -10.1554448 13.8065185 -9.5 8.9375 C-8.1875 5.5 -8.1875 5.5 -6.5 2.9375 C-6.0875 2.298125 -5.675 1.65875 -5.25 1 C-3.5 -0.0625 -3.5 -0.0625 0 0 Z " fill="#636363" transform="translate(195.5,357.0625)"/>
<path d="M0 0 C3.625 0.3125 3.625 0.3125 5.328125 1.96484375 C7.78248443 6.40782573 7.11892052 11.38646598 6.625 16.3125 C5.10006657 20.5242209 4.34520689 21.83236208 0.625 24.3125 C-1.8125 24.75 -1.8125 24.75 -4.375 24.3125 C-7.35784154 22.05521451 -8.25114549 20.20700479 -8.76171875 16.51953125 C-8.99102981 10.15417244 -8.65823115 6.11491068 -4.375 1.3125 C-3.375 0.3125 -3.375 0.3125 0 0 Z " fill="#616161" transform="translate(293.375,370.6875)"/>
<path d="M0 0 C0.68642578 -0.00322266 1.37285156 -0.00644531 2.08007812 -0.00976562 C7.49419037 0.04657802 13.19262439 0.31762439 17.1875 4.3125 C16.8125 7.4375 16.8125 7.4375 16.1875 10.3125 C10.95473246 11.36928041 5.87820855 11.52978795 0.5625 11.5625 C-0.283125 11.583125 -1.12875 11.60375 -2 11.625 C-8.21244269 11.66419522 -8.21244269 11.66419522 -11.3984375 9.796875 C-12.09839844 9.06210937 -12.09839844 9.06210937 -12.8125 8.3125 C-12.50462594 5.46466494 -12.25120834 3.7764973 -10.25390625 1.6640625 C-6.87461386 -0.20671377 -3.75710039 -0.086729 0 0 Z " fill="#666666" transform="translate(329.8125,413.6875)"/>
<path d="M0 0 C7.36113201 0.18805812 18.1523829 1.8398829 23.625 7.3125 C23.8125 9.75 23.8125 9.75 23.625 12.3125 C21.625 14.3125 21.625 14.3125 18.9375 14.5546875 C15.2766961 14.28703438 12.1386761 13.49314391 8.625 12.4375 C7.449375 12.08945312 6.27375 11.74140625 5.0625 11.3828125 C1.90214591 10.39879316 -1.2397516 9.37351394 -4.375 8.3125 C-5 5.4375 -5 5.4375 -5.375 2.3125 C-3.375 0.3125 -3.375 0.3125 0 0 Z " fill="#636363" transform="translate(142.375,387.6875)"/>
<path d="M0 0 C1.68996094 -0.03867187 1.68996094 -0.03867187 3.4140625 -0.078125 C6.375 0.25 6.375 0.25 8.28515625 1.60546875 C9.375 3.25 9.375 3.25 9.1875 5.8125 C8.375 8.25 8.375 8.25 6.375 10.25 C2.73936271 10.82548227 -0.94943878 10.85649572 -4.625 11 C-5.64851562 11.05542969 -6.67203125 11.11085938 -7.7265625 11.16796875 C-8.70367187 11.21050781 -9.68078125 11.25304687 -10.6875 11.296875 C-11.58597656 11.33651367 -12.48445312 11.37615234 -13.41015625 11.41699219 C-15.625 11.25 -15.625 11.25 -17.625 9.25 C-17.5625 6.8125 -17.5625 6.8125 -16.625 4.25 C-11.57206256 0.31993754 -6.22076494 0.08580365 0 0 Z " fill="#646464" transform="translate(155.625,411.75)"/>
<path d="M0 0 C7.56394815 0.12199916 14.38794372 2.31670739 21 6 C22.86328125 8.03515625 22.86328125 8.03515625 24 10 C23.73495121 13.00388632 23.16695725 13.83304275 21 16 C16.63284758 15.6396944 12.94796504 14.33268189 8.9375 12.625 C7.93589844 12.20476562 6.93429687 11.78453125 5.90234375 11.3515625 C3.11402472 10.053099 0.52822376 8.75418424 -2 7 C-2.4375 4.4375 -2.4375 4.4375 -2 2 C-1.34 1.34 -0.68 0.68 0 0 Z " fill="#646464" transform="translate(315,434)"/>
</svg>
